<?xml version="1.0" encoding="UTF-8"?>
<svg version="1.1" xmlns="http://www.w3.org/2000/svg" width="1254" height="1254">
<path d="M0 0 C413.82 0 827.64 0 1254 0 C1254 413.82 1254 827.64 1254 1254 C840.18 1254 426.36 1254 0 1254 C0 840.18 0 426.36 0 0 Z " fill="#FDFDFD" transform="translate(0,0)"/>
<path d="M0 0 C49.17 0 98.34 0 149 0 C149 6.93 149 13.86 149 21 C155.93 21 162.86 21 170 21 C170 69.18 170 117.36 170 167 C163.07 167 156.14 167 149 167 C149 173.93 149 180.86 149 188 C99.83 188 50.66 188 0 188 C0 181.07 0 174.14 0 167 C-6.93 167 -13.86 167 -21 167 C-21 118.82 -21 70.64 -21 21 C-14.07 21 -7.14 21 0 21 C0 14.07 0 7.14 0 0 Z " fill="#FAFAFA" transform="translate(149,497)"/>
<path d="M0 0 C14.5715625 -0.12375 14.5715625 -0.12375 29.4375 -0.25 C32.48798584 -0.28641602 35.53847168 -0.32283203 38.68139648 -0.36035156 C41.11962176 -0.37204228 43.55785489 -0.3822332 45.99609375 -0.390625 C47.24555786 -0.41108887 48.49502197 -0.43155273 49.78234863 -0.45263672 C57.13346381 -0.45555643 62.59864946 0.30770615 69 4 C69.87011719 4.46921875 70.74023438 4.9384375 71.63671875 5.421875 C78.40495661 9.80511476 83.54951825 15.16959694 86 23 C86.21484045 25.67295006 86.32497134 28.20613398 86.3125 30.875 C86.32861328 31.55691406 86.34472656 32.23882813 86.36132812 32.94140625 C86.3710383 43.13709123 80.39441336 50.53985108 74 58 C74.58007812 58.36609375 75.16015625 58.7321875 75.7578125 59.109375 C82.59764186 63.84985079 86.55107856 68.99710956 89 77 C90.39072106 87.37111365 89.26390706 96.22822797 83.01171875 104.69140625 C78.6477752 109.86934963 74.46278627 113.80599138 68 116 C67.09064697 116.3407959 66.18129395 116.6815918 65.24438477 117.03271484 C59.30808096 118.70571839 53.08396127 118.24411533 46.97265625 118.1953125 C45.78055542 118.19329834 44.58845459 118.19128418 43.36022949 118.18920898 C38.92761358 118.17878295 34.49505273 118.15086047 30.0625 118.125 C15.1815625 118.063125 15.1815625 118.063125 0 118 C0 79.06 0 40.12 0 0 Z " fill="#050505" transform="translate(883,535)"/>
<path d="M0 0 C8.51922293 6.55824326 14.62191566 16.20822435 16.75390625 26.82421875 C18.26271307 40.16398701 16.36968195 53.64631876 8.09375 64.5 C3.09630706 70.41246771 -1.99888953 74.68022461 -9 78 C-9.71027344 78.33902344 -10.42054687 78.67804688 -11.15234375 79.02734375 C-21.31016407 82.90124008 -35.60453055 82.85937387 -45.6875 78.9375 C-58.76330612 72.34434705 -66.52962901 62.75108978 -71.12109375 48.85546875 C-74.00230163 36.2165702 -72.56763796 23.91915592 -66.0625 12.6875 C-65.05619338 11.11560499 -64.03722541 9.55166697 -63 8 C-62.4225 7.113125 -61.845 6.22625 -61.25 5.3125 C-44.33692515 -12.07038248 -20.03947912 -12.13327837 0 0 Z " fill="#060505" transform="translate(1055,574)"/>
<path d="M0 0 C7.26 0 14.52 0 22 0 C22.33 17.16 22.66 34.32 23 52 C29.19963413 45.23676276 35.10617615 38.74687205 40.81640625 31.65234375 C42.99397068 29.00732363 45.25318763 26.46787475 47.5625 23.9375 C51.15581968 19.99482979 54.51773499 15.93063218 57.78515625 11.71484375 C58.51605469 10.81894531 59.24695313 9.92304687 60 9 C60.50063965 8.24356201 61.0012793 7.48712402 61.51708984 6.70776367 C64.38652844 2.80177593 66.4214137 0.3492385 71.26977539 -0.72338867 C75.0507879 -0.88508756 78.72256773 -0.78707296 82.5 -0.5625 C84.4490625 -0.5015918 84.4490625 -0.5015918 86.4375 -0.43945312 C89.6288938 -0.33385554 92.81247053 -0.18632142 96 0 C92.38079843 4.91272665 88.66892221 9.6890306 84.6875 14.3125 C81.26629776 18.3185033 77.88162678 22.3459219 74.5625 26.4375 C70.09969113 31.91969148 65.50701069 37.28452483 60.89453125 42.640625 C60.42740723 43.18912109 59.9602832 43.73761719 59.47900391 44.30273438 C58.43303002 45.50306624 57.35932117 46.67949143 56.26708984 47.83789062 C55.70844238 48.44310547 55.14979492 49.04832031 54.57421875 49.671875 C54.05819092 50.21424805 53.54216309 50.75662109 53.01049805 51.31542969 C51.80503481 52.95393768 51.80503481 52.95393768 52.16088867 54.95410156 C53.12380395 57.30185543 54.30862935 59.0460866 55.8515625 61.0625 C56.44783447 61.84890869 57.04410645 62.63531738 57.65844727 63.44555664 C58.30740967 64.28852295 58.95637207 65.13148926 59.625 66 C61.00144252 67.81109119 62.37774062 69.62229215 63.75390625 71.43359375 C64.46047363 72.35897949 65.16704102 73.28436523 65.89501953 74.23779297 C69.13995727 78.49587991 72.3523247 82.77817669 75.5625 87.0625 C76.17254883 87.8764624 76.78259766 88.6904248 77.41113281 89.52905273 C79.27545909 92.01834643 81.13798772 94.50897504 83 97 C83.66080566 97.88300781 84.32161133 98.76601563 85.00244141 99.67578125 C86.96449231 102.30134828 88.920617 104.93122207 90.875 107.5625 C91.47642822 108.36631104 92.07785645 109.17012207 92.69750977 109.99829102 C93.52400024 111.11482056 93.52400024 111.11482056 94.3671875 112.25390625 C94.85300293 112.90689697 95.33881836 113.5598877 95.83935547 114.23266602 C97 116 97 116 98 119 C74.46223563 121.66816061 74.46223563 121.66816061 67.72167969 117.63769531 C63.95358077 113.88213583 61.69308803 109.23714328 59.35009766 104.51123047 C56.97368219 100.09101175 53.85933187 96.22325517 50.8125 92.25 C45.37529115 84.9433788 40.11423775 77.53605932 35 70 C33.27385413 71.25537882 31.62541044 72.61667196 30 74 C29.38697021 74.45503906 28.77394043 74.91007813 28.14233398 75.37890625 C23.76610923 79.26437631 22.58038153 82.77194347 22.18643188 88.43994141 C22.03371327 92.62891472 22.03364238 96.80892468 22.0625 101 C22.04937737 102.7461203 22.0331307 104.49222007 22.01367188 106.23828125 C21.96719517 110.49393121 21.98509829 114.74236798 22 119 C14.74 119 7.48 119 0 119 C0 79.73 0 40.46 0 0 Z " fill="#050404" transform="translate(380,535)"/>
<path d="M0 0 C0.80759766 -0.00773438 1.61519531 -0.01546875 2.44726562 -0.0234375 C13.7256873 0.01291519 24.49007408 3.67440602 32.90234375 11.390625 C44.08916627 23.91986622 44.5625 34.99273985 44.5625 52.25 C23.1125 52.25 1.6625 52.25 -20.4375 52.25 C-19.30676384 60.16515314 -17.78854764 62.81761903 -11.75390625 67.578125 C-5.55545934 71.36384311 1.54646399 71.05954262 8.5625 70.25 C13.06643958 68.95425123 15.78517499 67.39007668 18.4375 63.5 C20.5625 61.25 20.5625 61.25 22.6015625 60.8984375 C25.28183588 60.87291109 27.89122292 61.02558377 30.5625 61.25 C31.65820312 61.32992187 32.75390625 61.40984375 33.8828125 61.4921875 C36.77925514 61.71815111 39.67067857 61.97174914 42.5625 62.25 C40.79450628 70.06730556 36.96604216 76.37600267 30.5625 81.25 C16.54904507 89.43235288 3.44740785 91.24737523 -12.4375 88.1875 C-18.76774834 86.48933514 -23.47738409 83.46653592 -28.4375 79.25 C-29.09621094 78.69054687 -29.75492187 78.13109375 -30.43359375 77.5546875 C-38.97936097 69.65215007 -43.35920608 59.04289618 -43.84204102 47.50244141 C-44.0665999 33.43341123 -39.76533521 21.90656203 -30.1875 11.5625 C-21.43541783 3.23640413 -11.91543018 -0.11357042 0 0 Z " fill="#080807" transform="translate(519.4375,565.75)"/>
<path d="M0 0 C0.72123047 -0.01224609 1.44246094 -0.02449219 2.18554688 -0.03710938 C13.55205788 -0.06769192 23.60392091 4.10672951 32 11.8125 C43.0057669 23.65443399 43.6875 36.5843909 43.6875 52.1875 C21.9075 52.1875 0.1275 52.1875 -22.3125 52.1875 C-18.83368209 60.88454478 -17.01167133 65.41905832 -8.98046875 69.3203125 C-1.44237461 71.77046901 6.69141074 70.85938041 13.78515625 67.55078125 C15.89716739 66.19365468 15.89716739 66.19365468 17.546875 63.56640625 C19.6875 61.1875 19.6875 61.1875 22.60546875 60.6640625 C23.68441406 60.71304688 24.76335937 60.76203125 25.875 60.8125 C27.01710938 60.85632813 28.15921875 60.90015625 29.3359375 60.9453125 C33.47872274 61.2446746 37.57122162 61.62936056 41.6875 62.1875 C39.51563829 70.65776066 34.10599183 78.49139049 26.6875 83.1875 C13.844162 89.41508439 -0.78417286 91.84753618 -14.875 88.125 C-26.44174602 83.71862056 -33.57646707 76.2915494 -40.3125 66.1875 C-44.99596155 53.00885456 -46.79806326 39.20985576 -41.6328125 25.86328125 C-35.82768921 14.09846038 -25.58364651 5.51958657 -13.3125 1.1875 C-8.91242648 0.01116901 -4.52614732 0.00398078 0 0 Z " fill="#080707" transform="translate(781.3125,565.8125)"/>
<path d="M0 0 C7.59 0 15.18 0 23 0 C23 7.26 23 14.52 23 22 C15.74 22 8.48 22 1 22 C1 28.93 1 35.86 1 43 C-6.92 43 -14.84 43 -23 43 C-23 49.6 -23 56.2 -23 63 C-20.52693359 62.98259766 -20.52693359 62.98259766 -18.00390625 62.96484375 C-15.85677196 62.95546762 -13.70963645 62.94636723 -11.5625 62.9375 C-10.47388672 62.92912109 -9.38527344 62.92074219 -8.26367188 62.91210938 C-7.22919922 62.90888672 -6.19472656 62.90566406 -5.12890625 62.90234375 C-4.17056885 62.89710693 -3.21223145 62.89187012 -2.22485352 62.88647461 C0 63 0 63 1 64 C1.08669432 65.4887186 1.10703494 66.981445 1.09765625 68.47265625 C1.09515869 69.28226807 1.09266113 70.09187988 1.09008789 70.92602539 C1.08098389 71.96106201 1.07187988 72.99609863 1.0625 74.0625 C1.041875 77.341875 1.02125 80.62125 1 84 C8.26 84 15.52 84 23 84 C23 91.26 23 98.52 23 106 C15.41 106 7.82 106 0 106 C0 99.07 0 92.14 0 85 C-7.59 85 -15.18 85 -23 85 C-23 78.07 -23 71.14 -23 64 C-31.25 64 -39.5 64 -48 64 C-48 75.88 -48 87.76 -48 100 C-55.26 100 -62.52 100 -70 100 C-70 68.98 -70 37.96 -70 6 C-62.74 6 -55.48 6 -48 6 C-48 17.88 -48 29.76 -48 42 C-39.75 42 -31.5 42 -23 42 C-23 35.07 -23 28.14 -23 21 C-15.41 21 -7.82 21 0 21 C0 14.07 0 7.14 0 0 Z " fill="#020202" transform="translate(247,538)"/>
<path d="M0 0 C6.62235396 5.84758508 10.98223758 13.65499168 12.41940308 22.3661499 C12.61476545 26.20932443 12.60251962 29.9894471 12.49609375 33.8359375 C12.48299111 35.22837802 12.4730491 36.62085145 12.46607971 38.01333618 C12.43971788 41.62758066 12.37129183 45.23976438 12.29315186 48.85321045 C12.22073693 52.56071104 12.18940383 56.26855421 12.15429688 59.9765625 C12.07987108 67.21457722 11.9570624 74.45048406 11.8125 81.6875 C4.8825 81.6875 -2.0475 81.6875 -9.1875 81.6875 C-9.20151855 79.25117187 -9.20151855 79.25117187 -9.21582031 76.765625 C-9.25579637 70.7196139 -9.32157784 64.67410754 -9.39501953 58.62841797 C-9.42318474 56.01552837 -9.44442129 53.40255427 -9.45849609 50.78955078 C-9.47998613 47.02592854 -9.52667143 43.26331752 -9.578125 39.5 C-9.57935364 38.33823242 -9.58058228 37.17646484 -9.58184814 35.97949219 C-9.70514574 29.09800025 -10.48316557 24.53806409 -14.1875 18.6875 C-19.73186806 13.41358892 -24.63431072 13.34063832 -32.015625 13.40625 C-37.4151587 13.88502639 -39.89547405 16.28780522 -43.4375 20.125 C-46.3761251 24.42798676 -47.43337243 28.01875435 -47.50634766 33.2121582 C-47.52621735 34.29290115 -47.54608704 35.3736441 -47.56655884 36.48713684 C-47.58388565 38.22020332 -47.58388565 38.22020332 -47.6015625 39.98828125 C-47.62092865 41.17979294 -47.6402948 42.37130463 -47.6602478 43.59892273 C-47.71995896 47.39920932 -47.76639581 51.19952634 -47.8125 55 C-47.8506875 57.57878915 -47.88973968 60.15756565 -47.9296875 62.73632812 C-48.02565384 69.05328251 -48.10971673 75.37029661 -48.1875 81.6875 C-55.1175 81.6875 -62.0475 81.6875 -69.1875 81.6875 C-69.1875 53.3075 -69.1875 24.9275 -69.1875 -4.3125 C-62.9175 -4.3125 -56.6475 -4.3125 -50.1875 -4.3125 C-50.1875 -1.3425 -50.1875 1.6275 -50.1875 4.6875 C-49.57003906 4.14480469 -48.95257812 3.60210938 -48.31640625 3.04296875 C-34.54915029 -8.58690501 -15.29222997 -10.70685366 0 0 Z " fill="#060606" transform="translate(711.1875,572.3125)"/>
<path d="M0 0 C7.91749028 -1.6246902 16.27690617 -2.90139466 24 0 C30.9331915 6.1347574 35.34060506 14.59170323 39.59326172 22.70507812 C40.05748535 23.46240234 40.52170898 24.21972656 41 25 C41.66 25 42.32 25 43 25 C44.79559589 22.7192446 44.79559589 22.7192446 46.66015625 19.78515625 C47.37107422 18.70685547 48.08199219 17.62855469 48.81445312 16.51757812 C49.56406433 15.36605609 50.31341009 14.21436121 51.0625 13.0625 C52.53046907 10.8228455 54.00176209 8.58539259 55.47265625 6.34765625 C56.12500244 5.34742432 56.77734863 4.34719238 57.44946289 3.31665039 C59 1 59 1 60 0 C61.78071246 -0.08726223 63.5648314 -0.10699041 65.34765625 -0.09765625 C66.42724609 -0.09443359 67.50683594 -0.09121094 68.61914062 -0.08789062 C70.32360352 -0.07532227 70.32360352 -0.07532227 72.0625 -0.0625 C73.77276367 -0.05573242 73.77276367 -0.05573242 75.51757812 -0.04882812 C78.34510351 -0.03699747 81.1725264 -0.0205141 84 0 C81.00738913 5.49368178 77.58669248 10.47067309 73.875 15.5 C67.43194417 24.35781732 67.43194417 24.35781732 61.125 33.3125 C60.6904248 33.91578125 60.25584961 34.5190625 59.80810547 35.140625 C57.49932536 38.4946098 57.49932536 38.4946098 57.23828125 42.44091797 C58.02504517 45.08414214 58.97477011 46.83364555 60.5546875 49.08203125 C61.0820752 49.84185303 61.60946289 50.6016748 62.15283203 51.38452148 C62.72114746 52.18575439 63.28946289 52.9869873 63.875 53.8125 C65.05731951 55.50779308 66.23961067 57.20310594 67.421875 58.8984375 C68.01935547 59.74889648 68.61683594 60.59935547 69.23242188 61.47558594 C71.89326413 65.2757391 74.50719154 69.10764353 77.125 72.9375 C80.36862298 77.69624305 80.36862298 77.69624305 83.8046875 82.31640625 C85 84 85 84 85 86 C77.04640202 87.85846043 68.73916297 89.15277736 61 86 C52.46108605 79.07498889 47.06600459 67.55137828 42 58 C39.35283385 61.24049026 36.89880474 64.52804709 34.58203125 68.01171875 C33.96779297 68.93404297 33.35355469 69.85636719 32.72070312 70.80664062 C32.09099609 71.75732422 31.46128906 72.70800781 30.8125 73.6875 C30.17119141 74.64978516 29.52988281 75.61207031 28.86914062 76.60351562 C25.73867333 81.1861982 25.73867333 81.1861982 23 86 C15.08 86 7.16 86 -1 86 C0.44387958 82.39030106 1.49591211 80.01893168 3.6171875 76.953125 C4.39582153 75.82112671 4.39582153 75.82112671 5.19018555 74.66625977 C6.0241687 73.47021118 6.0241687 73.47021118 6.875 72.25 C7.73315308 71.00657837 7.73315308 71.00657837 8.60864258 69.73803711 C13.08804791 63.26341127 17.62531697 56.8286266 22.21630859 50.43261719 C22.68504395 49.77551758 23.1537793 49.11841797 23.63671875 48.44140625 C24.04623779 47.87107666 24.45575684 47.30074707 24.87768555 46.71313477 C26.08349621 44.87254885 27.05255178 42.98418617 28 41 C27.65855957 40.52804199 27.31711914 40.05608398 26.96533203 39.56982422 C19.61146996 29.4025248 12.28248132 19.21855213 5 9 C4.54109375 8.38044434 4.0821875 7.76088867 3.609375 7.12255859 C0 2.21162877 0 2.21162877 0 0 Z " fill="#060606" transform="translate(1074,568)"/>
<path d="M0 0 C49.17 0 98.34 0 149 0 C149 6.93 149 13.86 149 21 C99.83 21 50.66 21 0 21 C0 14.07 0 7.14 0 0 Z " fill="#030303" transform="translate(149,664)"/>
<path d="M0 0 C49.17 0 98.34 0 149 0 C149 6.93 149 13.86 149 21 C99.83 21 50.66 21 0 21 C0 14.07 0 7.14 0 0 Z " fill="#050505" transform="translate(149,497)"/>
<path d="M0 0 C6.93 0 13.86 0 21 0 C21 48.18 21 96.36 21 146 C14.07 146 7.14 146 0 146 C0 97.82 0 49.64 0 0 Z " fill="#040404" transform="translate(298,518)"/>
<path d="M0 0 C6.93 0 13.86 0 21 0 C21 48.18 21 96.36 21 146 C14.07 146 7.14 146 0 146 C0 97.82 0 49.64 0 0 Z " fill="#030303" transform="translate(128,518)"/>
<path d="M0 0 C6.93 0 13.86 0 21 0 C21 38.94 21 77.88 21 118 C14.07 118 7.14 118 0 118 C0 79.06 0 40.12 0 0 Z " fill="#050505" transform="translate(841,535)"/>
<path d="M0 0 C0.85722656 -0.00257813 1.71445312 -0.00515625 2.59765625 -0.0078125 C4.9375 0.125 4.9375 0.125 7.9375 1.125 C7.9375 7.725 7.9375 14.325 7.9375 21.125 C5.606875 21.228125 3.27625 21.33125 0.875 21.4375 C-6.56104983 21.89116032 -11.38120714 22.50329142 -16.875 27.875 C-21.47756378 34.71309476 -21.38728136 41.52235896 -21.4765625 49.52734375 C-21.49592865 50.60504532 -21.5152948 51.68274689 -21.5352478 52.79310608 C-21.59475755 56.2161583 -21.64131456 59.63924466 -21.6875 63.0625 C-21.72570608 65.39129025 -21.76475933 67.72006676 -21.8046875 70.04882812 C-21.90043564 75.74077313 -21.98457218 81.43278426 -22.0625 87.125 C-28.6625 87.125 -35.2625 87.125 -42.0625 87.125 C-42.0625 59.075 -42.0625 31.025 -42.0625 2.125 C-35.4625 2.125 -28.8625 2.125 -22.0625 2.125 C-22.0625 5.095 -22.0625 8.065 -22.0625 11.125 C-21.4025 11.125 -20.7425 11.125 -20.0625 11.125 C-19.70285156 10.23361328 -19.70285156 10.23361328 -19.3359375 9.32421875 C-17.80113823 6.67362982 -16.24904918 5.59272032 -13.6875 3.9375 C-12.91664063 3.42832031 -12.14578125 2.91914062 -11.3515625 2.39453125 C-7.54032925 0.28079267 -4.32077382 -0.01303401 0 0 Z " fill="#040404" transform="translate(622.0625,565.875)"/>
<path d="M0 0 C5.74144439 4.85979937 9.31400315 10.676278 10.27734375 18.15234375 C10.62385404 26.03891785 8.77022259 33.2778561 3.75 39.4375 C-1.91688002 45.23317275 -6.42465965 46.18957984 -14.375 46.5625 C-20.40136008 46.41958237 -24.4470205 45.68972522 -29.1953125 41.91796875 C-35.06400216 35.68089813 -37.2959558 28.82686709 -37.14453125 20.4296875 C-36.67474031 12.53212082 -34.66234318 6.70103801 -29 1 C-19.91125845 -5.79201852 -9.63620748 -5.58711704 0 0 Z " fill="#FAFAFA" transform="translate(1041,589)"/>
<path d="M0 0 C7.59 0 15.18 0 23 0 C23 7.26 23 14.52 23 22 C15.74 22 8.48 22 1 22 C1 28.93 1 35.86 1 43 C-15.5 43 -32 43 -49 43 C-49 31.12 -49 19.24 -49 7 C-55.6 7 -62.2 7 -69 7 C-69 37.36 -69 67.72 -69 99 C-62.4 99 -55.8 99 -49 99 C-49 87.45 -49 75.9 -49 64 C-48.67 64 -48.34 64 -48 64 C-48 75.88 -48 87.76 -48 100 C-55.26 100 -62.52 100 -70 100 C-70 68.98 -70 37.96 -70 6 C-62.74 6 -55.48 6 -48 6 C-48 17.88 -48 29.76 -48 42 C-39.75 42 -31.5 42 -23 42 C-23 35.07 -23 28.14 -23 21 C-15.41 21 -7.82 21 0 21 C0 14.07 0 7.14 0 0 Z " fill="#040404" transform="translate(247,538)"/>
<path d="M0 0 C4.69720516 -0.11537895 9.38941583 -0.21471667 14.08691406 -0.2746582 C15.68148536 -0.29966413 17.27594365 -0.33368099 18.87011719 -0.37719727 C34.84833092 -0.80214976 34.84833092 -0.80214976 40.66992188 3.64257812 C43.99285294 7.03382201 45.14525284 10.36087468 45.375 15 C45.14430227 20.25589618 43.37130236 23.73154532 39.5 27.3125 C35.15716189 30.24391573 31.319608 30.13344862 26.26953125 30.09765625 C25.51911057 30.0962413 24.76868988 30.09482635 23.99552917 30.09336853 C21.6011454 30.0877756 19.20685547 30.07522444 16.8125 30.0625 C15.18815239 30.05748408 13.56380332 30.05292134 11.93945312 30.04882812 C7.95957025 30.0386598 3.97989007 30.01908312 0 30 C0 20.1 0 10.2 0 0 Z " fill="#FBFBFB" transform="translate(905,603)"/>
<path d="M0 0 C4.28731985 -0.06919165 8.57267233 -0.12882248 12.86010742 -0.16479492 C14.31590368 -0.17980313 15.77165532 -0.20021633 17.22729492 -0.22631836 C19.33002789 -0.26305676 21.43215885 -0.2798056 23.53515625 -0.29296875 C24.797229 -0.3086792 26.05930176 -0.32438965 27.35961914 -0.34057617 C32.47168939 0.13768404 36.29713482 1.65563275 40.375 4.875 C42.31589995 7.41309993 42.71114849 8.82263339 43 12 C43.12375 13.299375 43.2475 14.59875 43.375 15.9375 C43.32261342 19.40811099 42.89037497 20.17088607 40.875 23.3125 C35.66783005 28.18007191 31.48465936 29.37781591 24.4140625 29.29296875 C23.71227875 29.28872391 23.010495 29.28447906 22.28744507 29.28010559 C20.0662244 29.26343599 17.84594212 29.22580872 15.625 29.1875 C14.11069027 29.17243788 12.59636619 29.15875216 11.08203125 29.14648438 C7.38737659 29.11613398 3.69472708 29.05739795 0 29 C0 19.43 0 9.86 0 0 Z " fill="#F4F4F4" transform="translate(904,555)"/>
<path d="M0 0 C6.81761894 -0.0252689 13.63522589 -0.04283244 20.45288086 -0.05493164 C22.77417451 -0.05997333 25.09546497 -0.06680651 27.41674805 -0.07543945 C30.74528795 -0.08751225 34.07378602 -0.09322979 37.40234375 -0.09765625 C38.44712387 -0.10281754 39.49190399 -0.10797882 40.56834412 -0.11329651 C41.52926468 -0.11337204 42.49018524 -0.11344757 43.48022461 -0.11352539 C44.33071884 -0.115746 45.18121307 -0.11796661 46.05747986 -0.12025452 C48 0 48 0 49 1 C49.08669432 2.4887186 49.10703494 3.981445 49.09765625 5.47265625 C49.09515869 6.28226807 49.09266113 7.09187988 49.09008789 7.92602539 C49.08098389 8.96106201 49.07187988 9.99609863 49.0625 11.0625 C49.041875 14.341875 49.02125 17.62125 49 21 C56.26 21 63.52 21 71 21 C71 28.26 71 35.52 71 43 C63.41 43 55.82 43 48 43 C48 36.07 48 29.14 48 22 C40.41 22 32.82 22 25 22 C25 15.07 25 8.14 25 1 C16.75 1 8.5 1 0 1 C0 0.67 0 0.34 0 0 Z " fill="#100F0F" transform="translate(199,601)"/>
<path d="M0 0 C4.14769475 2.53018416 7.19812621 6.02125241 9.375 10.375 C9.375 12.355 9.375 14.335 9.375 16.375 C-5.145 16.375 -19.665 16.375 -34.625 16.375 C-32.60484078 8.29436314 -31.45742043 5.03408179 -24.8125 0.5625 C-17.5213278 -3.25208678 -7.51853205 -3.38119942 0 0 Z " fill="#F7F7F7" transform="translate(532.625,585.625)"/>
<path d="M0 0 C4.25133188 2.47528205 7.46277322 5.37266646 9.4375 9.9375 C9.9325 12.9075 9.9325 12.9075 10.4375 15.9375 C-4.4125 15.9375 -19.2625 15.9375 -34.5625 15.9375 C-32.53287902 7.81901608 -31.39071842 4.57723042 -24.6875 0.125 C-16.97922116 -3.87517765 -7.83347021 -3.51921572 0 0 Z " fill="#F9F9F9" transform="translate(793.5625,586.0625)"/>
<path d="M0 0 C7.26 0 14.52 0 22 0 C22 6.6 22 13.2 22 20 C14.74 20 7.48 20 0 20 C0 13.4 0 6.8 0 0 Z " fill="#030303" transform="translate(248,623)"/>
<path d="M0 0 C7.26 0 14.52 0 22 0 C22 6.6 22 13.2 22 20 C14.74 20 7.48 20 0 20 C0 13.4 0 6.8 0 0 Z " fill="#030303" transform="translate(248,539)"/>
<path d="M0 0 C7.59 0 15.18 0 23 0 C23 0.33 23 0.66 23 1 C15.74 1 8.48 1 1 1 C1 7.6 1 14.2 1 21 C8.26 21 15.52 21 23 21 C23 21.33 23 21.66 23 22 C15.74 22 8.48 22 1 22 C1 28.93 1 35.86 1 43 C-15.5 43 -32 43 -49 43 C-49 31.12 -49 19.24 -49 7 C-55.6 7 -62.2 7 -69 7 C-69 37.36 -69 67.72 -69 99 C-62.4 99 -55.8 99 -49 99 C-49 87.45 -49 75.9 -49 64 C-48.67 64 -48.34 64 -48 64 C-48 75.88 -48 87.76 -48 100 C-55.26 100 -62.52 100 -70 100 C-70 68.98 -70 37.96 -70 6 C-62.74 6 -55.48 6 -48 6 C-48 17.88 -48 29.76 -48 42 C-32.16 42 -16.32 42 0 42 C0 35.4 0 28.8 0 22 C-7.59 22 -15.18 22 -23 22 C-23 21.67 -23 21.34 -23 21 C-15.41 21 -7.82 21 0 21 C0 14.07 0 7.14 0 0 Z " fill="#6E6E6E" transform="translate(247,538)"/>
<path d="M0 0 C0.33 0 0.66 0 1 0 C1 6.6 1 13.2 1 20 C8.26 20 15.52 20 23 20 C23 20.33 23 20.66 23 21 C15.74 21 8.48 21 1 21 C1 27.6 1 34.2 1 41 C8.26 41 15.52 41 23 41 C23 41.33 23 41.66 23 42 C15.41 42 7.82 42 0 42 C0 35.07 0 28.14 0 21 C-7.59 21 -15.18 21 -23 21 C-23 20.67 -23 20.34 -23 20 C-15.41 20 -7.82 20 0 20 C0 13.4 0 6.8 0 0 Z " fill="#747475" transform="translate(247,602)"/>
<path d="M0 0 C-0.66 1.32 -1.32 2.64 -2 4 C-2.66 3.67 -3.32 3.34 -4 3 C-13.87767823 1.82211044 -13.87767823 1.82211044 -23.05859375 4.78515625 C-25.22705646 6.75238562 -27.16730714 8.71931555 -29 11 C-29.66 10.67 -30.32 10.34 -31 10 C-26.50744741 -4.29448552 -12.188662 -0.92456883 0 0 Z " fill="#101111" transform="translate(1158,568)"/>
<path d="M0 0 C0.66666667 2.66666667 1.33333333 5.33333333 2 8 C14.87 8 27.74 8 41 8 C41 8.33 41 8.66 41 9 C26.48 9 11.96 9 -3 9 C-1 1 -1 1 0 0 Z " fill="#EDEEED" transform="translate(501,593)"/>
<path d="M0 0 C0.66 0.33 1.32 0.66 2 1 C1.67657623 1.71294724 1.35315247 2.42589447 1.01992798 3.16044617 C-0.04139497 6.11524662 -0.27409074 8.30733682 -0.31884766 11.43286133 C-0.33871735 12.49358353 -0.35858704 13.55430573 -0.37905884 14.64717102 C-0.39061005 15.7806749 -0.40216125 16.91417877 -0.4140625 18.08203125 C-0.43342865 19.25134689 -0.4527948 20.42066254 -0.4727478 21.62541199 C-0.53245195 25.35436749 -0.57889297 29.08335401 -0.625 32.8125 C-0.66318815 35.3431123 -0.70224037 37.87371173 -0.7421875 40.40429688 C-0.83814609 46.60275011 -0.92322058 52.80128113 -1 59 C-1.33 59 -1.66 59 -2 59 C-2.05071764 51.40115204 -2.08574107 43.80234776 -2.10986328 36.20336914 C-2.11991967 33.61839161 -2.13356649 31.03342545 -2.15087891 28.44848633 C-2.17514271 24.73255608 -2.18648684 21.01677627 -2.1953125 17.30078125 C-2.20563507 16.14540359 -2.21595764 14.99002594 -2.22659302 13.79963684 C-2.22674408 12.71889389 -2.22689514 11.63815094 -2.22705078 10.5246582 C-2.231492 9.57645706 -2.23593323 8.62825592 -2.24050903 7.65132141 C-1.9797742 4.77703504 -1.19554424 2.61313188 0 0 Z " fill="#E4E4E5" transform="translate(665,595)"/>
<path d="M0 0 C1.37562854 1.28965176 2.70766393 2.62689293 4 4 C4 4.66 4 5.32 4 6 C-3.92 6 -11.84 6 -20 6 C-20 4.68 -20 3.36 -20 2 C-13.4 2 -6.8 2 0 2 C0 1.34 0 0.68 0 0 Z " fill="#3D3D3E" transform="translate(1155,648)"/>
<path d="M0 0 C2 3 2 3 2 6 C-12.85 6 -27.7 6 -43 6 C-42.67 5.01 -42.34 4.02 -42 3 C-41.34 3.33 -40.68 3.66 -40 4 C-37.01029711 4.08705146 -34.04415045 4.11550145 -31.0546875 4.09765625 C-30.1696756 4.0962413 -29.2846637 4.09482635 -28.37283325 4.09336853 C-25.54018809 4.0877614 -22.70762136 4.07520771 -19.875 4.0625 C-17.95703239 4.05748592 -16.03906354 4.05292285 -14.12109375 4.04882812 C-9.41403218 4.03778966 -4.7070294 4.02052025 0 4 C0 2.68 0 1.36 0 0 Z " fill="#E5E5E5" transform="translate(802,596)"/>
<path d="M0 0 C0.66666667 2.66666667 1.33333333 5.33333333 2 8 C3.32 8.33 4.64 8.66 6 9 C3.03 9 0.06 9 -3 9 C-1.125 1.125 -1.125 1.125 0 0 Z " fill="#E0DFE0" transform="translate(501,593)"/>
<path d="M0 0 C0.33 0 0.66 0 1 0 C1.76173392 4.3164922 2.16063604 7.74433453 1 12 C0.01 11.67 -0.98 11.34 -2 11 C-2.05399736 9.54207116 -2.09279177 8.08357288 -2.125 6.625 C-2.15980469 5.40683594 -2.15980469 5.40683594 -2.1953125 4.1640625 C-2 2 -2 2 0 0 Z " fill="#EDECED" transform="translate(1006,605)"/>
<path d="M0 0 C0.99 0.99 1.98 1.98 3 3 C2.443125 3.185625 1.88625 3.37125 1.3125 3.5625 C-2.06754192 5.66360714 -3.85140381 8.70665994 -6 12 C-6 8.36804504 -5.04546845 7.25286089 -3 4.3125 C-2.443125 3.50425781 -1.88625 2.69601562 -1.3125 1.86328125 C-0.879375 1.24839844 -0.44625 0.63351562 0 0 Z " fill="#D9D8D9" transform="translate(1115,625)"/>
<path d="M0 0 C0.33 0.99 0.66 1.98 1 3 C-0.4375 5.1875 -0.4375 5.1875 -2 7 C-3.32 6.67 -4.64 6.34 -6 6 C-2.25 1.125 -2.25 1.125 0 0 Z " fill="#E7E6E7" transform="translate(1014,589)"/>
<path d="M0 0 C0 3.77910478 -0.99703962 4.46106101 -3.5 7.1875 C-4.47453125 8.26064453 -4.47453125 8.26064453 -5.46875 9.35546875 C-5.9740625 9.89816406 -6.479375 10.44085937 -7 11 C-7.33 10.34 -7.66 9.68 -8 9 C-7.23587913 7.87043002 -6.46340197 6.74651022 -5.6875 5.625 C-5.25824219 4.99851562 -4.82898438 4.37203125 -4.38671875 3.7265625 C-3 2 -3 2 0 0 Z " fill="#D8D7D8" transform="translate(768,587)"/>
<path d="M0 0 C0.33 1.32 0.66 2.64 1 4 C-1.31 5.98 -3.62 7.96 -6 10 C-4.6302836 6.00499382 -2.74277578 3.19990508 0 0 Z " fill="#D2D1D2" transform="translate(1139,595)"/>
<path d="M0 0 C0.33 1.32 0.66 2.64 1 4 C-3.29 4 -7.58 4 -12 4 C-12 3.67 -12 3.34 -12 3 C-10.95199219 2.92652344 -10.95199219 2.92652344 -9.8828125 2.8515625 C-8.97273437 2.77679687 -8.06265625 2.70203125 -7.125 2.625 C-6.22007812 2.55539062 -5.31515625 2.48578125 -4.3828125 2.4140625 C-1.82058097 2.20431868 -1.82058097 2.20431868 0 0 Z " fill="#0C0D0C" transform="translate(720,648)"/>
<path d="M0 0 C0.99 0.33 1.98 0.66 3 1 C3.1875 3.375 3.1875 3.375 3 6 C2.01 6.66 1.02 7.32 0 8 C0 5.36 0 2.72 0 0 Z " fill="#F2F1F2" transform="translate(972,616)"/>
<path d="M0 0 C0.99 0 1.98 0 3 0 C2.6875 2.875 2.6875 2.875 2 6 C1.01 6.66 0.02 7.32 -1 8 C-0.67 5.36 -0.34 2.72 0 0 Z " fill="#1D1D1D" transform="translate(985,594)"/>
</svg>
